<?xml version="1.0" encoding="UTF-8" standalone="no"?>
<!-- Created with Inkscape (http://www.inkscape.org/) -->

<svg
   xmlns:dc="http://purl.org/dc/elements/1.1/"
   xmlns:cc="http://creativecommons.org/ns#"
   xmlns:rdf="http://www.w3.org/1999/02/22-rdf-syntax-ns#"
   xmlns:svg="http://www.w3.org/2000/svg"
   xmlns="http://www.w3.org/2000/svg"
   xmlns:xlink="http://www.w3.org/1999/xlink"
   xmlns:sodipodi="http://sodipodi.sourceforge.net/DTD/sodipodi-0.dtd"
   xmlns:inkscape="http://www.inkscape.org/namespaces/inkscape"
   width="210mm"
   height="297mm"
   id="svg2"
   version="1.1"
   inkscape:version="0.47pre4 r22446"
   sodipodi:docname="entwurf.svg">
  <defs
     id="defs4"><inkscape:perspective
   sodipodi:type="inkscape:persp3d"
   inkscape:vp_x="0 : 526.18109 : 1"
   inkscape:vp_y="0 : 1000 : 0"
   inkscape:vp_z="744.09448 : 526.18109 : 1"
   inkscape:persp3d-origin="372.04724 : 350.78739 : 1"
   id="perspective10" />
<inkscape:perspective
   sodipodi:type="inkscape:persp3d"
   inkscape:vp_x="0 : 0.5 : 1"
   inkscape:vp_y="0 : 1000 : 0"
   inkscape:vp_z="1 : 0.5 : 1"
   inkscape:persp3d-origin="0.5 : 0.33333333 : 1"
   id="perspective2838" />
<inkscape:perspective
   sodipodi:type="inkscape:persp3d"
   inkscape:vp_x="0 : 0.5 : 1"
   inkscape:vp_y="0 : 1000 : 0"
   inkscape:vp_z="1 : 0.5 : 1"
   inkscape:persp3d-origin="0.5 : 0.33333333 : 1"
   id="perspective2824" />
<inkscape:perspective
   id="perspective10-9"
   inkscape:persp3d-origin="372.04724 : 350.78739 : 1"
   inkscape:vp_z="744.09448 : 526.18109 : 1"
   inkscape:vp_y="0 : 1000 : 0"
   inkscape:vp_x="0 : 526.18109 : 1"
   sodipodi:type="inkscape:persp3d" />
<inkscape:perspective
   id="perspective3012"
   inkscape:persp3d-origin="305.65302 : 189.50401 : 1"
   inkscape:vp_z="611.30603 : 284.25601 : 1"
   inkscape:vp_y="0 : 1000 : 0"
   inkscape:vp_x="0 : 284.25601 : 1"
   sodipodi:type="inkscape:persp3d" />

	
	
<inkscape:perspective
   id="perspective3048"
   inkscape:persp3d-origin="0.5 : 0.33333333 : 1"
   inkscape:vp_z="1 : 0.5 : 1"
   inkscape:vp_y="0 : 1000 : 0"
   inkscape:vp_x="0 : 0.5 : 1"
   sodipodi:type="inkscape:persp3d" />
<inkscape:perspective
   id="perspective3048-2"
   inkscape:persp3d-origin="0.5 : 0.33333333 : 1"
   inkscape:vp_z="1 : 0.5 : 1"
   inkscape:vp_y="0 : 1000 : 0"
   inkscape:vp_x="0 : 0.5 : 1"
   sodipodi:type="inkscape:persp3d" />
<inkscape:perspective
   id="perspective3048-6"
   inkscape:persp3d-origin="0.5 : 0.33333333 : 1"
   inkscape:vp_z="1 : 0.5 : 1"
   inkscape:vp_y="0 : 1000 : 0"
   inkscape:vp_x="0 : 0.5 : 1"
   sodipodi:type="inkscape:persp3d" />
<inkscape:perspective
   id="perspective3169"
   inkscape:persp3d-origin="0.5 : 0.33333333 : 1"
   inkscape:vp_z="1 : 0.5 : 1"
   inkscape:vp_y="0 : 1000 : 0"
   inkscape:vp_x="0 : 0.5 : 1"
   sodipodi:type="inkscape:persp3d" />

		
		
		
	<inkscape:perspective
   id="perspective3186"
   inkscape:persp3d-origin="0.5 : 0.33333333 : 1"
   inkscape:vp_z="1 : 0.5 : 1"
   inkscape:vp_y="0 : 1000 : 0"
   inkscape:vp_x="0 : 0.5 : 1"
   sodipodi:type="inkscape:persp3d" />
<inkscape:perspective
   id="perspective3186-6"
   inkscape:persp3d-origin="0.5 : 0.33333333 : 1"
   inkscape:vp_z="1 : 0.5 : 1"
   inkscape:vp_y="0 : 1000 : 0"
   inkscape:vp_x="0 : 0.5 : 1"
   sodipodi:type="inkscape:persp3d" />
<inkscape:perspective
   id="perspective3186-2"
   inkscape:persp3d-origin="0.5 : 0.33333333 : 1"
   inkscape:vp_z="1 : 0.5 : 1"
   inkscape:vp_y="0 : 1000 : 0"
   inkscape:vp_x="0 : 0.5 : 1"
   sodipodi:type="inkscape:persp3d" />
</defs>
  <sodipodi:namedview
     id="base"
     pagecolor="#ffffff"
     bordercolor="#666666"
     borderopacity="1.0"
     inkscape:pageopacity="0.0"
     inkscape:pageshadow="2"
     inkscape:zoom="1.4"
     inkscape:cx="442.34952"
     inkscape:cy="836.31622"
     inkscape:document-units="px"
     inkscape:current-layer="layer1"
     showgrid="false"
     inkscape:window-width="1440"
     inkscape:window-height="826"
     inkscape:window-x="0"
     inkscape:window-y="25"
     inkscape:window-maximized="1" />
  <metadata
     id="metadata7">
    <rdf:RDF>
      <cc:Work
         rdf:about="">
        <dc:format>image/svg+xml</dc:format>
        <dc:type
           rdf:resource="http://purl.org/dc/dcmitype/StillImage" />
        <dc:title></dc:title>
      </cc:Work>
    </rdf:RDF>
  </metadata>
  <g
     inkscape:label="Ebene 1"
     inkscape:groupmode="layer"
     id="layer1">
    <image
       y="49.235619"
       x="353.68604"
       id="image3171"
       height="143.9837"
       width="267.39828"
       xlink:href="file:///home/natanael/Dokumente/bachelorarbeit/logo/SmileysTransp.gif"
       style="opacity:0.4" />
    <g
       id="g2982"
       transform="matrix(0.39466427,0,0,0.39466427,-4.3954047,-17.383381)">
		<path
   style="fill:#3f3b3c"
   d="m 182.321,584.327 v -82.168 h -46.106 c -24.536,0 -44.414,18.398 -44.414,41.089 0,22.681 19.885,41.079 44.414,41.079 h 14.131 v -17.861 h -14.063 c -14.27,0 -25.886,-10.039 -25.886,-23.218 0,-13.193 11.335,-23.228 25.593,-23.228 h 28.601 v 64.307 h 17.73 z"
   id="path2984" />

		<path
   style="fill:#3f3b3c"
   d="m 241.049,499.065 c -23.56,0 -42.651,16.204 -42.651,40.771 v 44.476 h 17.346 v -45.464 c 0,-15.82 13.521,-24.951 25.305,-24.951 11.768,0 25.049,9.131 25.049,24.951 l -0.005,45.464 h 17.595 v -44.476 c 0,-24.567 -19.092,-40.771 -42.639,-40.771 z"
   id="path2986" />

		<path
   style="fill:#3f3b3c"
   d="m 379.733,542.725 c 0,-23.682 -15.642,-40.571 -39.197,-40.571 h -39.092 v 17.858 h 40.039 c 15.173,0 21.44,10.628 21.44,22.469 0,11.834 -6.506,23.979 -21.672,23.979 l -40.039,-0.005 v 17.681 h 39.087 c 23.553,0 39.434,-17.729 39.434,-41.411 z"
   id="path2988" />

		<path
   style="fill:#3f3b3c"
   d="m 703.106,542.725 c 0,-23.682 -15.648,-40.571 -39.196,-40.571 h -39.087 v 17.858 h 40.039 c 15.174,0 21.436,10.628 21.436,22.469 0,11.834 -6.494,23.979 -21.68,23.979 l -40.027,-0.005 v 17.681 h 39.088 c 23.547,0 39.427,-17.729 39.427,-41.411 z"
   id="path2990" />

		<path
   style="fill:#3f3b3c"
   d="m 460.821,556.573 c 7.557,-4.121 11.305,-11.682 11.305,-24.621 0,-22.779 -12.086,-29.798 -35.645,-29.798 h -39.078 v 17.858 h 40.042 c 15.173,0 17.884,4.827 17.884,11.688 0,6.867 -2.21,12.734 -17.371,12.734 l -40.037,-0.008 -0.029,16.414 h 39.089 c 0.379,0 0.732,0 1.111,-0.015 7.751,0.85 13.806,7.437 13.806,15.462 0,2.556 0.452,4.992 -0.659,7.129 0.012,0.293 1.086,0.598 1.086,0.902 h 16.139 c 0,0.009 2.93,-17.503 -7.643,-27.745 z"
   id="path2992" />

		<path
   style="fill:#3f3b3c"
   d="m 488.324,542.059 c 0,23.363 18.151,42.316 40.552,42.316 22.401,0 40.552,-18.945 40.552,-42.316 0,-23.348 -18.151,-42.298 -40.552,-42.298 -22.401,0 -40.552,18.951 -40.552,42.298 z m 16.273,0 c 0,-13.973 10.876,-25.318 24.279,-25.318 13.403,0 24.279,11.341 24.279,25.318 0,14.001 -10.876,25.329 -24.279,25.329 -13.403,0 -24.279,-11.328 -24.279,-25.329 z"
   id="path2994" />

		<rect
   style="fill:#3f3b3c"
   x="589.22803"
   y="502.15399"
   width="17.773001"
   height="82.157997"
   id="rect2996" />

	</g>
    <g
       id="g4089">
      <path
         style="fill:#9accee;fill-opacity:1;stroke:#000000;stroke-width:4.0999999;stroke-miterlimit:4;stroke-opacity:1;stroke-dasharray:none"
         d="m 474.42724,232.67715 11.30088,-16.4074 c 0.66816,-0.97623 0.50393,-2.25352 -0.37299,-2.85997 -0.87856,-0.60269 -2.12956,-0.30484 -2.80416,0.67139 l -11.73988,17.03959 c -7.73036,-3.0494 -16.32476,-4.74638 -25.38125,-4.74638 -9.0538,0 -17.65302,1.69698 -25.38337,4.74638 l -11.73989,-17.03959 c -0.67459,-0.97623 -1.92614,-1.27462 -2.80414,-0.67139 -0.87801,0.60323 -1.04438,1.88322 -0.37353,2.85997 l 11.30088,16.4074 c -17.95947,8.35611 -30.56448,24.23969 -32.16917,42.77664 h 122.33954 c -1.60521,-18.53695 -14.21023,-34.42 -32.17292,-42.77664 z m -54.80314,25.85457 c -3.73796,0 -6.7713,-3.03009 -6.7713,-6.77076 0,-3.73422 3.03064,-6.76754 6.7713,-6.76754 3.74067,0 6.7638,3.03332 6.7638,6.76754 0,3.73798 -3.02689,6.77076 -6.7638,6.77076 z m 52.45731,0 c -3.74067,0 -6.76701,-3.03009 -6.76701,-6.77076 0,-3.73422 3.02687,-6.76754 6.76701,-6.76754 3.74119,0 6.76753,3.03332 6.76753,6.76754 0,3.73798 -3.02687,6.77076 -6.76753,6.77076 z"
         id="path3004" />
      <path
         style="fill:#fefe67;fill-opacity:1;stroke:#000000;stroke-width:4.0999999;stroke-miterlimit:4;stroke-opacity:1;stroke-dasharray:none"
         d="m 625.78335,252.80434 11.30088,-16.4074 c 0.66816,-0.97623 0.50393,-2.25353 -0.373,-2.85998 -0.87855,-0.60268 -2.12954,-0.30483 -2.80415,0.67139 l -11.73988,17.03961 c -7.73035,-3.04941 -16.32475,-4.7464 -25.38123,-4.7464 -9.05382,0 -17.65304,1.69699 -25.38339,4.7464 l -11.73989,-17.03961 c -0.67459,-0.97622 -1.92613,-1.27461 -2.80414,-0.67139 -0.87801,0.60324 -1.04438,1.88321 -0.37353,2.85998 l 11.30088,16.4074 c -17.95947,8.35611 -30.56448,24.2397 -32.16917,42.77665 H 657.95627 C 656.35106,277.04404 643.74604,261.161 625.78335,252.80434 z m -54.80313,25.85457 c -3.73797,0 -6.77131,-3.03009 -6.77131,-6.77074 0,-3.73423 3.03064,-6.76755 6.77131,-6.76755 3.74066,0 6.76379,3.03332 6.76379,6.76755 0,3.73796 -3.02689,6.77074 -6.76379,6.77074 z m 52.4573,0 c -3.74067,0 -6.76701,-3.03009 -6.76701,-6.77074 0,-3.73423 3.02687,-6.76755 6.76701,-6.76755 3.74118,0 6.76753,3.03332 6.76753,6.76755 0,3.73796 -3.02687,6.77074 -6.76753,6.77074 z"
         id="path3004-2" />
      <path
         style="fill:#fc6667;fill-opacity:1;stroke:#000000;stroke-width:4.0999999;stroke-miterlimit:4;stroke-opacity:1;stroke-dasharray:none"
         d="m 514.77098,272.05753 11.30088,-16.40738 c 0.66817,-0.97624 0.50394,-2.25353 -0.373,-2.85999 -0.87854,-0.60269 -2.12955,-0.30482 -2.80415,0.67141 l -11.73988,17.03959 c -7.73035,-3.04942 -16.32476,-4.7464 -25.38124,-4.7464 -9.0538,0 -17.65302,1.69698 -25.38337,4.7464 l -11.7399,-17.03959 c -0.6746,-0.97623 -1.92613,-1.27463 -2.80414,-0.67141 -0.87801,0.60323 -1.04437,1.88322 -0.37353,2.85999 l 11.30088,16.40738 c -17.95946,8.35611 -30.56449,24.2397 -32.16917,42.77665 h 122.33955 c -1.60522,-18.53695 -14.21024,-34.41999 -32.17293,-42.77665 z m -54.80314,25.85458 c -3.73796,0 -6.7713,-3.03009 -6.7713,-6.77075 0,-3.73423 3.03064,-6.76754 6.7713,-6.76754 3.74066,0 6.76381,3.03331 6.76381,6.76754 0,3.73797 -3.02689,6.77075 -6.76381,6.77075 z m 52.45731,0 c -3.74066,0 -6.767,-3.03009 -6.767,-6.77075 0,-3.73423 3.02687,-6.76754 6.767,-6.76754 3.74119,0 6.76754,3.03331 6.76754,6.76754 0,3.73797 -3.02688,6.77075 -6.76754,6.77075 z"
         id="path3004-5" />
      <path
         style="fill:#30cc98;fill-opacity:1;stroke:#000000;stroke-width:4.0999999;stroke-miterlimit:4;stroke-opacity:1;stroke-dasharray:none"
         d="m 559.22483,229.42313 11.30088,-16.4074 c 0.66816,-0.97621 0.50394,-2.25352 -0.37299,-2.85997 -0.87856,-0.60269 -2.12955,-0.30483 -2.80415,0.67139 l -11.73989,17.0396 c -7.73036,-3.04942 -16.32475,-4.74641 -25.38123,-4.74641 -9.05381,0 -17.65304,1.69699 -25.38338,4.74641 l -11.73989,-17.0396 c -0.6746,-0.97622 -1.92615,-1.27463 -2.80415,-0.67139 -0.87801,0.60322 -1.04438,1.88321 -0.37352,2.85997 l 11.30086,16.4074 c -17.95946,8.3561 -30.56448,24.2397 -32.16916,42.77664 h 122.33954 c -1.60521,-18.53694 -14.21022,-34.41998 -32.17292,-42.77664 z m -54.80313,25.85458 c -3.73797,0 -6.7713,-3.03009 -6.7713,-6.77076 0,-3.73423 3.03063,-6.76754 6.7713,-6.76754 3.74066,0 6.76378,3.03331 6.76378,6.76754 0,3.73798 -3.02688,6.77076 -6.76378,6.77076 z m 52.4573,0 c -3.74067,0 -6.767,-3.03009 -6.767,-6.77076 0,-3.73423 3.02686,-6.76754 6.767,-6.76754 3.7412,0 6.76753,3.03331 6.76753,6.76754 0,3.73798 -3.02687,6.77076 -6.76753,6.77076 z"
         id="path3004-54" />
    </g>
  </g>
</svg>
