<?xml version="1.0" encoding="UTF-8" standalone="no"?>
<!-- Created with Inkscape (http://www.inkscape.org/) -->
<svg xmlns:svg="http://www.w3.org/2000/svg" xmlns="http://www.w3.org/2000/svg" version="1.0" width="199.99974" height="99.999893" id="svg2">
  <defs id="defs4"/>
  <g transform="translate(-32.0001, -26.5873)" id="layer1">
    <g transform="matrix(1.40378, 0, 0, 1.40378, -12.9211, -10.4194)" id="g14938">
      <path d="M 329.0572 493.74783 A 11.111678 11.111678 0 1 1  306.83385,493.74783 A 11.111678 11.111678 0 1 1  329.0572 493.74783 z" transform="matrix(2.20588, 0, 0, 2.20588, -642.85, -1036.29)" style="fill: rgb(114, 159, 207); fill-opacity: 1; stroke: black; stroke-width: 1.80189; stroke-miterlimit: 4; stroke-dasharray: none; stroke-opacity: 1;" id="path2083"/>
      <path d="M 296.22723 482.25732 A 2.1465743 2.1465743 0 1 1  291.93408,482.25732 A 2.1465743 2.1465743 0 1 1  296.22723 482.25732 z" transform="matrix(2.4689, 0, 0, 2.4689, -659.607, -1140.43)" style="fill: black; fill-opacity: 1; stroke: none; stroke-width: 1; stroke-miterlimit: 4; stroke-dasharray: none; stroke-opacity: 1;" id="path9331"/>
      <path d="M 296.22723 482.25732 A 2.1465743 2.1465743 0 1 1  291.93408,482.25732 A 2.1465743 2.1465743 0 1 1  296.22723 482.25732 z" transform="matrix(2.4689, 0, 0, 2.4689, -675.506, -1140.43)" style="fill: black; fill-opacity: 1; stroke: none; stroke-width: 1; stroke-miterlimit: 4; stroke-dasharray: none; stroke-opacity: 1;" id="path9333"/>
    </g>
    <g transform="matrix(1.40378, 0, 0, 1.40378, -11.9305, -10.6446)" id="g14953">
      <path d="M 329.0572 493.74783 A 11.111678 11.111678 0 1 1  306.83385,493.74783 A 11.111678 11.111678 0 1 1  329.0572 493.74783 z" transform="matrix(2.20588, 0, 0, 2.20588, -554.08, -1025.69)" style="fill: rgb(252, 233, 79); fill-opacity: 1; stroke: black; stroke-width: 1.80189; stroke-miterlimit: 4; stroke-dasharray: none; stroke-opacity: 1;" id="path12891"/>
      <path d="M 296.22723 482.25732 A 2.1465743 2.1465743 0 1 1  291.93408,482.25732 A 2.1465743 2.1465743 0 1 1  296.22723 482.25732 z" transform="matrix(2.4689, 0, 0, 2.4689, -570.837, -1129.83)" style="fill: black; fill-opacity: 1; stroke: none; stroke-width: 1; stroke-miterlimit: 4; stroke-dasharray: none; stroke-opacity: 1;" id="path12895"/>
      <path d="M 296.22723 482.25732 A 2.1465743 2.1465743 0 1 1  291.93408,482.25732 A 2.1465743 2.1465743 0 1 1  296.22723 482.25732 z" transform="matrix(2.4689, 0, 0, 2.4689, -586.736, -1129.83)" style="fill: black; fill-opacity: 1; stroke: none; stroke-width: 1; stroke-miterlimit: 4; stroke-dasharray: none; stroke-opacity: 1;" id="path12897"/>
    </g>
    <g transform="matrix(1.40378, 0, 0, 1.40378, -12.9211, -10.8556)" id="g14943">
      <path d="M 329.0572 493.74783 A 11.111678 11.111678 0 1 1  306.83385,493.74783 A 11.111678 11.111678 0 1 1  329.0572 493.74783 z" transform="matrix(2.20588, 0, 0, 2.20588, -616.352, -1017.74)" style="fill: rgb(239, 41, 41); fill-opacity: 1; stroke: black; stroke-width: 1.80189; stroke-miterlimit: 4; stroke-dasharray: none; stroke-opacity: 1;" id="path12911"/>
      <path d="M 296.22723 482.25732 A 2.1465743 2.1465743 0 1 1  291.93408,482.25732 A 2.1465743 2.1465743 0 1 1  296.22723 482.25732 z" transform="matrix(2.4689, 0, 0, 2.4689, -633.109, -1121.88)" style="fill: black; fill-opacity: 1; stroke: none; stroke-width: 1; stroke-miterlimit: 4; stroke-dasharray: none; stroke-opacity: 1;" id="path12915"/>
      <path d="M 296.22723 482.25732 A 2.1465743 2.1465743 0 1 1  291.93408,482.25732 A 2.1465743 2.1465743 0 1 1  296.22723 482.25732 z" transform="matrix(2.4689, 0, 0, 2.4689, -649.008, -1121.88)" style="fill: black; fill-opacity: 1; stroke: none; stroke-width: 1; stroke-miterlimit: 4; stroke-dasharray: none; stroke-opacity: 1;" id="path12917"/>
    </g>
    <g transform="matrix(1.40378, 0, 0, 1.40378, -12.9211, -10.4194)" id="g14948">
      <path d="M 329.0572 493.74783 A 11.111678 11.111678 0 1 1  306.83385,493.74783 A 11.111678 11.111678 0 1 1  329.0572 493.74783 z" transform="matrix(2.20588, 0, 0, 2.20588, -585.878, -1036.29)" style="fill: rgb(138, 226, 52); fill-opacity: 1; stroke: black; stroke-width: 1.80189; stroke-miterlimit: 4; stroke-dasharray: none; stroke-opacity: 1;" id="path12901"/>
      <path d="M 296.22723 482.25732 A 2.1465743 2.1465743 0 1 1  291.93408,482.25732 A 2.1465743 2.1465743 0 1 1  296.22723 482.25732 z" transform="matrix(2.4689, 0, 0, 2.4689, -602.635, -1140.43)" style="fill: black; fill-opacity: 1; stroke: none; stroke-width: 1; stroke-miterlimit: 4; stroke-dasharray: none; stroke-opacity: 1;" id="path12905"/>
      <path d="M 296.22723 482.25732 A 2.1465743 2.1465743 0 1 1  291.93408,482.25732 A 2.1465743 2.1465743 0 1 1  296.22723 482.25732 z" transform="matrix(2.4689, 0, 0, 2.4689, -618.534, -1140.43)" style="fill: black; fill-opacity: 1; stroke: none; stroke-width: 1; stroke-miterlimit: 4; stroke-dasharray: none; stroke-opacity: 1;" id="path12907"/>
    </g>
  </g>
</svg>