<?xml version="1.0" encoding="UTF-8" standalone="no"?>
<!-- Created with Inkscape (http://www.inkscape.org/) -->

<svg
   xmlns:dc="http://purl.org/dc/elements/1.1/"
   xmlns:cc="http://creativecommons.org/ns#"
   xmlns:rdf="http://www.w3.org/1999/02/22-rdf-syntax-ns#"
   xmlns:svg="http://www.w3.org/2000/svg"
   xmlns="http://www.w3.org/2000/svg"
   xmlns:xlink="http://www.w3.org/1999/xlink"
   xmlns:sodipodi="http://sodipodi.sourceforge.net/DTD/sodipodi-0.dtd"
   xmlns:inkscape="http://www.inkscape.org/namespaces/inkscape"
   width="48"
   height="48"
   id="svg2818"
   version="1.1"
   inkscape:version="0.47pre4 r22446"
   sodipodi:docname="icon_v1.svg"
   inkscape:export-filename="/home/natanael/Dokumente/bachelorarbeit/logo/icon_v1.png"
   inkscape:export-xdpi="90"
   inkscape:export-ydpi="90">
  <defs
     id="defs2820">
    <linearGradient
       id="linearGradient3758">
      <stop
         style="stop-color:#d0d0d0;stop-opacity:1;"
         offset="0"
         id="stop3760" />
      <stop
         style="stop-color:#f3f3f3;stop-opacity:1;"
         offset="1"
         id="stop3762" />
    </linearGradient>
    <inkscape:perspective
       sodipodi:type="inkscape:persp3d"
       inkscape:vp_x="0 : 526.18109 : 1"
       inkscape:vp_y="0 : 1000 : 0"
       inkscape:vp_z="744.09448 : 526.18109 : 1"
       inkscape:persp3d-origin="372.04724 : 350.78739 : 1"
       id="perspective2826" />
    <inkscape:perspective
       id="perspective2836"
       inkscape:persp3d-origin="0.5 : 0.33333333 : 1"
       inkscape:vp_z="1 : 0.5 : 1"
       inkscape:vp_y="0 : 1000 : 0"
       inkscape:vp_x="0 : 0.5 : 1"
       sodipodi:type="inkscape:persp3d" />
    <inkscape:perspective
       id="perspective3676"
       inkscape:persp3d-origin="0.5 : 0.33333333 : 1"
       inkscape:vp_z="1 : 0.5 : 1"
       inkscape:vp_y="0 : 1000 : 0"
       inkscape:vp_x="0 : 0.5 : 1"
       sodipodi:type="inkscape:persp3d" />
    <inkscape:perspective
       id="perspective3716"
       inkscape:persp3d-origin="0.5 : 0.33333333 : 1"
       inkscape:vp_z="1 : 0.5 : 1"
       inkscape:vp_y="0 : 1000 : 0"
       inkscape:vp_x="0 : 0.5 : 1"
       sodipodi:type="inkscape:persp3d" />
    <linearGradient
       inkscape:collect="always"
       xlink:href="#linearGradient3758"
       id="linearGradient3764"
       x1="24"
       y1="1004.3621"
       x2="24"
       y2="1052.3621"
       gradientUnits="userSpaceOnUse" />
    <linearGradient
       inkscape:collect="always"
       xlink:href="#linearGradient3758"
       id="linearGradient3780"
       x1="16.345579"
       y1="1052.3621"
       x2="16.457447"
       y2="1004.3621"
       gradientUnits="userSpaceOnUse" />
  </defs>
  <sodipodi:namedview
     id="base"
     pagecolor="#ffffff"
     bordercolor="#666666"
     borderopacity="1.0"
     inkscape:pageopacity="0.0"
     inkscape:pageshadow="2"
     inkscape:zoom="11.318045"
     inkscape:cx="4.2085951"
     inkscape:cy="25.313584"
     inkscape:document-units="px"
     inkscape:current-layer="layer1"
     showgrid="false"
     inkscape:window-width="1440"
     inkscape:window-height="826"
     inkscape:window-x="0"
     inkscape:window-y="25"
     inkscape:window-maximized="1" />
  <metadata
     id="metadata2823">
    <rdf:RDF>
      <cc:Work
         rdf:about="">
        <dc:format>image/svg+xml</dc:format>
        <dc:type
           rdf:resource="http://purl.org/dc/dcmitype/StillImage" />
        <dc:title />
      </cc:Work>
    </rdf:RDF>
  </metadata>
  <g
     inkscape:label="Ebene 1"
     inkscape:groupmode="layer"
     id="layer1"
     transform="translate(0,-1004.3622)">
    <rect
       style="fill:url(#linearGradient3780);fill-opacity:1;stroke:url(#linearGradient3764);stroke-width:2.352;stroke-linecap:round;stroke-linejoin:round;stroke-miterlimit:4;stroke-opacity:1;stroke-dasharray:none"
       id="rect3756"
       width="47.048058"
       height="47.048058"
       x="0.47597033"
       y="1004.8381" />
    <g
       id="g3748"
       transform="translate(-0.38927855,2.919876)">
      <path
         inkscape:connection-end="#path3004-54-9"
         inkscape:connection-start="#path3004-5-9"
         inkscape:connector-type="polyline"
         transform="translate(0,1004.3622)"
         id="path3742"
         d="M 14.446658,25.268997 23.599406,14.8546"
         style="fill:#9accee;fill-opacity:1;stroke:#9accee;stroke-width:2.5999999;stroke-linecap:round;stroke-linejoin:miter;stroke-miterlimit:4;stroke-opacity:1;stroke-dasharray:none" />
      <path
         inkscape:connection-end="#path3004-2"
         inkscape:connection-start="#path3004-54-9"
         inkscape:connector-type="polyline"
         transform="translate(0,1004.3622)"
         id="path3744"
         d="m 29.765679,14.8546 5.734605,14.566347"
         style="fill:#9accee;fill-opacity:1;stroke:#9accee;stroke-width:2.5999999;stroke-linecap:round;stroke-linejoin:miter;stroke-miterlimit:4;stroke-opacity:1;stroke-dasharray:none" />
      <path
         inkscape:connection-end="#path3004-5-9"
         inkscape:connection-start="#path3004-2"
         inkscape:connector-type="polyline"
         transform="translate(0,1004.3622)"
         id="path3746"
         d="M 30.717975,31.110748 20.5518,29.304668"
         style="fill:#9accee;fill-opacity:1;stroke:#9accee;stroke-width:2.5999999;stroke-linecap:round;stroke-linejoin:miter;stroke-miterlimit:4;stroke-opacity:1;stroke-dasharray:none" />
      <path
         style="fill:#fefe67;fill-opacity:1;stroke:#000000;stroke-width:0.63721043;stroke-miterlimit:4;stroke-opacity:1;stroke-dasharray:none"
         d="m 41.081841,1034.7109 1.75635,-2.55 c 0.10384,-0.1517 0.0783,-0.3503 -0.058,-0.4445 -0.13654,-0.094 -0.33097,-0.047 -0.43582,0.1043 l -1.82457,2.6483 c -1.20143,-0.4739 -2.537152,-0.7377 -3.944684,-0.7377 -1.407119,0 -2.743586,0.2638 -3.945015,0.7377 l -1.824581,-2.6483 c -0.104842,-0.1517 -0.299353,-0.1981 -0.435811,-0.1043 -0.136458,0.094 -0.162315,0.2927 -0.05805,0.4445 l 1.756351,2.55 c -2.79121,1.2987 -4.750245,3.7672 -4.999642,6.6482 h 19.013662 c -0.24948,-2.881 -2.20851,-5.3495 -5.00022,-6.6482 z m -8.517351,4.0182 c -0.580945,0 -1.052378,-0.4709 -1.052378,-1.0523 0,-0.5803 0.471014,-1.0518 1.052378,-1.0518 0.581363,0 1.051209,0.4715 1.051209,1.0518 0,0.581 -0.470431,1.0523 -1.051209,1.0523 z m 8.152761,0 c -0.58136,0 -1.0517,-0.4709 -1.0517,-1.0523 0,-0.5803 0.47042,-1.0518 1.0517,-1.0518 0.58145,0 1.0518,0.4715 1.0518,1.0518 0,0.581 -0.47043,1.0523 -1.0518,1.0523 z"
         id="path3004-2" />
      <path
         style="fill:#fc6667;fill-opacity:1;stroke:#000000;stroke-width:0.63721043;stroke-miterlimit:4;stroke-opacity:1;stroke-dasharray:none"
         d="m 16.709964,1030.381 1.756351,-2.5499 c 0.103845,-0.1518 0.07832,-0.3503 -0.05797,-0.4445 -0.13654,-0.094 -0.330969,-0.047 -0.435813,0.1043 l -1.824579,2.6483 c -1.20143,-0.474 -2.537149,-0.7377 -3.944681,-0.7377 -1.407116,0 -2.7435829,0.2637 -3.9450119,0.7377 l -1.824582,-2.6483 c -0.104844,-0.1517 -0.299354,-0.1981 -0.435812,-0.1043 -0.136457,0.094 -0.162313,0.2927 -0.05805,0.4445 l 1.756351,2.5499 c -2.791208,1.2987 -4.750247,3.7673 -4.999641,6.6483 H 21.710194 c -0.249479,-2.881 -2.208516,-5.3495 -5.000227,-6.6483 z m -8.5173489,4.0183 c -0.580943,0 -1.052376,-0.4709 -1.052376,-1.0523 0,-0.5804 0.471013,-1.0518 1.052376,-1.0518 0.581363,0 1.051212,0.4714 1.051212,1.0518 0,0.5809 -0.47043,1.0523 -1.051212,1.0523 z m 8.1527669,0 c -0.581363,0 -1.051708,-0.4709 -1.051708,-1.0523 0,-0.5804 0.470428,-1.0518 1.051708,-1.0518 0.581445,0 1.051792,0.4714 1.051792,1.0518 0,0.5809 -0.470429,1.0523 -1.051792,1.0523 z"
         id="path3004-5-9" />
      <path
         style="fill:#30cc98;fill-opacity:1;stroke:#000000;stroke-width:0.63721043;stroke-miterlimit:4;stroke-opacity:1;stroke-dasharray:none"
         d="m 32.364619,1012.5685 1.756351,-2.55 c 0.103844,-0.1517 0.07832,-0.3502 -0.05797,-0.4445 -0.136543,-0.094 -0.330968,-0.047 -0.435813,0.1044 l -1.82458,2.6482 c -1.201431,-0.4739 -2.537147,-0.7376 -3.94468,-0.7376 -1.407117,0 -2.743585,0.2637 -3.945013,0.7376 l -1.824581,-2.6482 c -0.104844,-0.1517 -0.299356,-0.1981 -0.435813,-0.1044 -0.136457,0.094 -0.162314,0.2927 -0.05805,0.4445 l 1.756348,2.55 c -2.791209,1.2987 -4.750246,3.7673 -4.99964,6.6483 h 19.013666 c -0.249477,-2.881 -2.208512,-5.3495 -5.000225,-6.6483 z m -8.517347,4.0183 c -0.580945,0 -1.052377,-0.471 -1.052377,-1.0523 0,-0.5804 0.471012,-1.0518 1.052377,-1.0518 0.581362,0 1.051207,0.4714 1.051207,1.0518 0,0.5809 -0.470429,1.0523 -1.051207,1.0523 z m 8.152765,0 c -0.581364,0 -1.051708,-0.471 -1.051708,-1.0523 0,-0.5804 0.470426,-1.0518 1.051708,-1.0518 0.581447,0 1.051791,0.4714 1.051791,1.0518 0,0.5809 -0.470428,1.0523 -1.051791,1.0523 z"
         id="path3004-54-9" />
    </g>
  </g>
</svg>
