<?xml version="1.0" encoding="UTF-8" standalone="no"?>
<!-- Created with Inkscape (http://www.inkscape.org/) -->

<svg
   xmlns:dc="http://purl.org/dc/elements/1.1/"
   xmlns:cc="http://creativecommons.org/ns#"
   xmlns:rdf="http://www.w3.org/1999/02/22-rdf-syntax-ns#"
   xmlns:svg="http://www.w3.org/2000/svg"
   xmlns="http://www.w3.org/2000/svg"
   xmlns:sodipodi="http://sodipodi.sourceforge.net/DTD/sodipodi-0.dtd"
   xmlns:inkscape="http://www.inkscape.org/namespaces/inkscape"
   width="281.79999"
   height="115.09"
   id="svg4034"
   version="1.1"
   inkscape:version="0.47pre4 r22446"
   sodipodi:docname="logo_v1.svg"
   inkscape:export-filename="/home/natanael/Dokumente/bachelorarbeit/logo/logo_v1.png"
   inkscape:export-xdpi="45.357082"
   inkscape:export-ydpi="45.357082">
  <defs
     id="defs4036">
    <inkscape:perspective
       sodipodi:type="inkscape:persp3d"
       inkscape:vp_x="0 : 526.18109 : 1"
       inkscape:vp_y="0 : 1000 : 0"
       inkscape:vp_z="744.09448 : 526.18109 : 1"
       inkscape:persp3d-origin="372.04724 : 350.78739 : 1"
       id="perspective4042" />
    <inkscape:perspective
       id="perspective4004"
       inkscape:persp3d-origin="0.5 : 0.33333333 : 1"
       inkscape:vp_z="1 : 0.5 : 1"
       inkscape:vp_y="0 : 1000 : 0"
       inkscape:vp_x="0 : 0.5 : 1"
       sodipodi:type="inkscape:persp3d" />
  </defs>
  <sodipodi:namedview
     id="base"
     pagecolor="#ffffff"
     bordercolor="#666666"
     borderopacity="1.0"
     inkscape:pageopacity="0.0"
     inkscape:pageshadow="2"
     inkscape:zoom="3.51313"
     inkscape:cx="140.89999"
     inkscape:cy="55.544998"
     inkscape:document-units="px"
     inkscape:current-layer="layer1"
     showgrid="false"
     showguides="true"
     inkscape:guide-bbox="true"
     inkscape:window-width="1440"
     inkscape:window-height="826"
     inkscape:window-x="0"
     inkscape:window-y="25"
     inkscape:window-maximized="1" />
  <metadata
     id="metadata4039">
    <rdf:RDF>
      <cc:Work
         rdf:about="">
        <dc:format>image/svg+xml</dc:format>
        <dc:type
           rdf:resource="http://purl.org/dc/dcmitype/StillImage" />
        <dc:title></dc:title>
      </cc:Work>
    </rdf:RDF>
  </metadata>
  <g
     inkscape:label="Ebene 1"
     inkscape:groupmode="layer"
     id="layer1"
     transform="translate(-211.10218,-470.81722)">
    <g
       id="g4083"
       transform="translate(-1.1035156e-6,-1.0000003)">
      <path
         style="fill:#9accee;fill-opacity:1;stroke:#000000;stroke-width:4.0999999;stroke-miterlimit:4;stroke-opacity:1;stroke-dasharray:none"
         d="m 305.32097,499.70022 11.30088,-16.4074 c 0.66816,-0.97623 0.50393,-2.25352 -0.37299,-2.85997 -0.87856,-0.60269 -2.12956,-0.30484 -2.80416,0.67139 l -11.73988,17.03959 c -7.73036,-3.0494 -16.32476,-4.74638 -25.38125,-4.74638 -9.0538,0 -17.65302,1.69698 -25.38337,4.74638 l -11.73989,-17.03959 c -0.67459,-0.97623 -1.92614,-1.27462 -2.80414,-0.67139 -0.87801,0.60323 -1.04438,1.88322 -0.37353,2.85997 l 11.30088,16.4074 c -17.95947,8.35611 -30.56448,24.23969 -32.16917,42.77664 h 122.33954 c -1.60521,-18.53695 -14.21023,-34.42 -32.17292,-42.77664 z m -54.80314,25.85457 c -3.73796,0 -6.7713,-3.03009 -6.7713,-6.77076 0,-3.73422 3.03064,-6.76754 6.7713,-6.76754 3.74067,0 6.7638,3.03332 6.7638,6.76754 0,3.73798 -3.02689,6.77076 -6.7638,6.77076 z m 52.45731,0 c -3.74067,0 -6.76701,-3.03009 -6.76701,-6.77076 0,-3.73422 3.02687,-6.76754 6.76701,-6.76754 3.74119,0 6.76753,3.03332 6.76753,6.76754 0,3.73798 -3.02687,6.77076 -6.76753,6.77076 z"
         id="path3004" />
      <path
         style="fill:#fefe67;fill-opacity:1;stroke:#000000;stroke-width:4.0999999;stroke-miterlimit:4;stroke-opacity:1;stroke-dasharray:none"
         d="m 456.67708,519.82741 11.30088,-16.4074 c 0.66816,-0.97623 0.50393,-2.25353 -0.373,-2.85998 -0.87855,-0.60268 -2.12954,-0.30483 -2.80415,0.67139 l -11.73988,17.03961 c -7.73035,-3.04941 -16.32475,-4.7464 -25.38123,-4.7464 -9.05382,0 -17.65304,1.69699 -25.38339,4.7464 l -11.73989,-17.03961 c -0.67459,-0.97622 -1.92613,-1.27461 -2.80414,-0.67139 -0.87801,0.60324 -1.04438,1.88321 -0.37353,2.85998 l 11.30088,16.4074 c -17.95947,8.35611 -30.56448,24.2397 -32.16917,42.77665 H 488.85 c -1.60521,-18.53695 -14.21023,-34.41999 -32.17292,-42.77665 z m -54.80313,25.85457 c -3.73797,0 -6.77131,-3.03009 -6.77131,-6.77074 0,-3.73423 3.03064,-6.76755 6.77131,-6.76755 3.74066,0 6.76379,3.03332 6.76379,6.76755 0,3.73796 -3.02689,6.77074 -6.76379,6.77074 z m 52.4573,0 c -3.74067,0 -6.76701,-3.03009 -6.76701,-6.77074 0,-3.73423 3.02687,-6.76755 6.76701,-6.76755 3.74118,0 6.76753,3.03332 6.76753,6.76755 0,3.73796 -3.02687,6.77074 -6.76753,6.77074 z"
         id="path3004-2" />
      <path
         style="fill:#fc6667;fill-opacity:1;stroke:#000000;stroke-width:4.0999999;stroke-miterlimit:4;stroke-opacity:1;stroke-dasharray:none"
         d="m 345.66471,539.0806 11.30088,-16.40738 c 0.66817,-0.97624 0.50394,-2.25353 -0.373,-2.85999 -0.87854,-0.60269 -2.12955,-0.30482 -2.80415,0.67141 l -11.73988,17.03959 c -7.73035,-3.04942 -16.32476,-4.7464 -25.38124,-4.7464 -9.0538,0 -17.65302,1.69698 -25.38337,4.7464 l -11.7399,-17.03959 c -0.6746,-0.97623 -1.92613,-1.27463 -2.80414,-0.67141 -0.87801,0.60323 -1.04437,1.88322 -0.37353,2.85999 l 11.30088,16.40738 c -17.95946,8.35611 -30.56449,24.2397 -32.16917,42.77665 H 377.83764 C 376.23242,563.3203 363.6274,547.43726 345.66471,539.0806 z m -54.80314,25.85458 c -3.73796,0 -6.7713,-3.03009 -6.7713,-6.77075 0,-3.73423 3.03064,-6.76754 6.7713,-6.76754 3.74066,0 6.76381,3.03331 6.76381,6.76754 0,3.73797 -3.02689,6.77075 -6.76381,6.77075 z m 52.45731,0 c -3.74066,0 -6.767,-3.03009 -6.767,-6.77075 0,-3.73423 3.02687,-6.76754 6.767,-6.76754 3.74119,0 6.76754,3.03331 6.76754,6.76754 0,3.73797 -3.02688,6.77075 -6.76754,6.77075 z"
         id="path3004-5" />
      <path
         style="fill:#30cc98;fill-opacity:1;stroke:#000000;stroke-width:4.0999999;stroke-miterlimit:4;stroke-opacity:1;stroke-dasharray:none"
         d="m 390.11856,496.4462 11.30088,-16.4074 c 0.66816,-0.97621 0.50394,-2.25352 -0.37299,-2.85997 -0.87856,-0.60269 -2.12955,-0.30483 -2.80415,0.67139 l -11.73989,17.0396 c -7.73036,-3.04942 -16.32475,-4.74641 -25.38123,-4.74641 -9.05381,0 -17.65304,1.69699 -25.38338,4.74641 l -11.73989,-17.0396 c -0.6746,-0.97622 -1.92615,-1.27463 -2.80415,-0.67139 -0.87801,0.60322 -1.04438,1.88321 -0.37352,2.85997 l 11.30086,16.4074 c -17.95946,8.3561 -30.56448,24.2397 -32.16916,42.77664 H 422.29148 C 420.68627,520.6859 408.08126,504.80286 390.11856,496.4462 z m -54.80313,25.85458 c -3.73797,0 -6.7713,-3.03009 -6.7713,-6.77076 0,-3.73423 3.03063,-6.76754 6.7713,-6.76754 3.74066,0 6.76378,3.03331 6.76378,6.76754 0,3.73798 -3.02688,6.77076 -6.76378,6.77076 z m 52.4573,0 c -3.74067,0 -6.767,-3.03009 -6.767,-6.77076 0,-3.73423 3.02686,-6.76754 6.767,-6.76754 3.7412,0 6.76753,3.03331 6.76753,6.76754 0,3.73798 -3.02687,6.77076 -6.76753,6.77076 z"
         id="path3004-54" />
    </g>
  </g>
</svg>
